<svg width="20" height="20" viewBox="0 0 20 20" fill="none" xmlns="http://www.w3.org/2000/svg">
<g clip-path="url(#clip0_550_266)">
<path d="M9.99953 0.757327C8.78564 0.755895 7.58345 0.994355 6.46201 1.459C5.34058 1.92365 4.32202 2.60533 3.46487 3.46487C2.60539 4.32221 1.92383 5.34096 1.45934 6.46257C0.994854 7.58417 0.756608 8.78651 0.758293 10.0005C0.756671 11.2144 0.994949 12.4166 1.45943 13.5382C1.92392 14.6597 2.60545 15.6783 3.46487 16.5356C5.13773 18.208 7.44827 19.2427 10.0005 19.2427C12.5527 19.2427 14.8633 18.208 16.5356 16.5356C18.2085 14.8633 19.2427 12.5527 19.2427 10.0005C19.2427 7.44827 18.208 5.13724 16.5356 3.46438C15.6783 2.60497 14.6597 1.92343 13.5382 1.45895C12.4166 0.994465 11.2144 0.756188 10.0005 0.75781L9.99953 0.757327ZM2.92944 2.92944C3.85688 1.99941 4.95897 1.26184 6.17238 0.759105C7.38578 0.256375 8.68658 -0.0015999 10 7.46517e-06C12.7611 7.46517e-06 15.2612 1.1191 17.0711 2.92895C18.0011 3.85649 18.7386 4.95868 19.2412 6.17217C19.7439 7.38566 20.0017 8.68653 20 10C20 12.7611 18.8809 15.2612 17.0711 17.0711C16.1435 18.0011 15.0412 18.7387 13.8276 19.2413C12.614 19.744 11.3131 20.0018 9.99953 20C8.68622 20.0016 7.38554 19.7436 6.17223 19.241C4.95891 18.7384 3.85688 18.0009 2.92944 17.0711C1.9993 16.1435 1.26165 15.0413 0.758921 13.8277C0.256187 12.6141 -0.00172584 11.3131 8.69099e-06 9.99952C8.69099e-06 7.23941 1.11959 4.7388 2.92944 2.92944Z" fill="black"/>
<path d="M9.99873 14.9349H5.18613C5.12485 14.9349 5.06608 14.9106 5.02275 14.8673C4.97942 14.8239 4.95508 14.7652 4.95508 14.7039C4.95508 13.3113 5.51993 12.0504 6.43306 11.1372C7.06055 10.5088 7.84301 10.0573 8.70116 9.82857C9.10808 10.0159 9.55078 10.1126 9.99873 10.1122C10.4623 10.1122 10.9022 10.0109 11.2973 9.82857C12.1684 10.0601 12.947 10.5184 13.5654 11.1372C14.0345 11.6051 14.4065 12.161 14.6601 12.7731C14.9136 13.3852 15.0437 14.0414 15.0429 14.7039C15.0429 14.7651 15.0186 14.8238 14.9754 14.8671C14.9321 14.9104 14.8735 14.9348 14.8123 14.9349H9.99873ZM9.99873 4.52637C10.6885 4.52637 11.3137 4.80614 11.7657 5.25861C11.998 5.49032 12.1822 5.76566 12.3078 6.0688C12.4334 6.37195 12.4978 6.69692 12.4974 7.02504C12.4974 7.71483 12.2176 8.33902 11.7657 8.79148C11.5339 9.0238 11.2586 9.20805 10.9555 9.33363C10.6523 9.4592 10.3273 9.52364 9.99922 9.52323C9.30943 9.52323 8.68476 9.24346 8.23278 8.79148C8.00045 8.55976 7.81621 8.28442 7.69063 7.98128C7.56505 7.67814 7.50062 7.35317 7.50102 7.02504C7.50102 6.33525 7.7808 5.71059 8.23278 5.25861C8.46444 5.02617 8.73976 4.84183 9.04291 4.71616C9.34605 4.5905 9.67105 4.526 9.99922 4.52637H9.99873Z" fill="black"/>
</g>
<defs>
<clipPath id="clip0_550_266">
<rect width="20" height="20" fill="white"/>
</clipPath>
</defs>
</svg>
