<svg width="38" height="42" viewBox="0 0 38 42" fill="none" xmlns="http://www.w3.org/2000/svg">
<mask id="path-1-inside-1_577_339" fill="white">
<path d="M18.7127 20.2315C21.7268 20.2315 24.3368 19.2346 26.4694 17.2678C28.602 15.3013 29.6831 12.8952 29.6831 10.1155C29.6831 7.3366 28.602 4.93022 26.4691 2.96304C24.3361 0.99684 21.7264 0 18.7127 0C15.6981 0 13.0887 0.99684 10.9562 2.96337C8.82365 4.92989 7.74218 7.33635 7.74218 10.1155C7.74218 12.8952 8.82356 15.3016 10.9565 17.2682C13.0895 19.2344 15.6992 20.2315 18.7127 20.2315ZM37.9079 32.2958C37.8464 31.4775 37.722 30.5847 37.5388 29.642C37.354 28.6922 37.116 27.7944 36.831 26.9737C36.5367 26.1255 36.1364 25.288 35.6416 24.4852C35.128 23.6521 34.5247 22.9267 33.8478 22.3297C33.1399 21.7052 32.2733 21.2031 31.2711 20.8368C30.2724 20.4725 29.1656 20.288 27.9817 20.288C27.5167 20.288 27.0671 20.4638 26.1987 20.9852C25.5814 21.3559 24.9623 21.7239 24.3414 22.0894C23.7447 22.44 22.9364 22.7684 21.938 23.0658C20.964 23.3564 19.9751 23.5038 18.9989 23.5038C18.0229 23.5038 17.0342 23.3564 16.0591 23.0658C15.0619 22.7687 14.2536 22.4403 13.6576 22.0897C12.9664 21.6824 12.341 21.3107 11.7985 20.9848C10.9312 20.4635 10.4811 20.2876 10.0162 20.2876C8.83193 20.2876 7.72554 20.4725 6.72716 20.8372C5.72566 21.2028 4.85867 21.7049 4.15011 22.33C3.47358 22.9273 2.87 23.6524 2.35706 24.4852C1.86263 25.2879 1.46231 26.1252 1.16759 26.9741C0.882924 27.7947 0.64496 28.6922 0.460103 29.642C0.276937 30.5834 0.152573 31.4765 0.0910131 32.2968C0.0297758 33.1223 -0.000577178 33.9495 8.30999e-06 34.7769C8.30999e-06 36.9694 0.755802 38.7442 2.24622 40.0532C3.71822 41.3449 5.66588 42.0002 8.03441 42.0002H29.9656C32.3341 42.0002 34.2811 41.3452 35.7534 40.0532C37.2442 38.7452 38 36.97 38 34.7766C37.9996 33.9304 37.9688 33.0956 37.9079 32.2958Z"/>
</mask>
<path d="M18.7127 20.2315C21.7268 20.2315 24.3368 19.2346 26.4694 17.2678C28.602 15.3013 29.6831 12.8952 29.6831 10.1155C29.6831 7.3366 28.602 4.93022 26.4691 2.96304C24.3361 0.99684 21.7264 0 18.7127 0C15.6981 0 13.0887 0.99684 10.9562 2.96337C8.82365 4.92989 7.74218 7.33635 7.74218 10.1155C7.74218 12.8952 8.82356 15.3016 10.9565 17.2682C13.0895 19.2344 15.6992 20.2315 18.7127 20.2315ZM37.9079 32.2958C37.8464 31.4775 37.722 30.5847 37.5388 29.642C37.354 28.6922 37.116 27.7944 36.831 26.9737C36.5367 26.1255 36.1364 25.288 35.6416 24.4852C35.128 23.6521 34.5247 22.9267 33.8478 22.3297C33.1399 21.7052 32.2733 21.2031 31.2711 20.8368C30.2724 20.4725 29.1656 20.288 27.9817 20.288C27.5167 20.288 27.0671 20.4638 26.1987 20.9852C25.5814 21.3559 24.9623 21.7239 24.3414 22.0894C23.7447 22.44 22.9364 22.7684 21.938 23.0658C20.964 23.3564 19.9751 23.5038 18.9989 23.5038C18.0229 23.5038 17.0342 23.3564 16.0591 23.0658C15.0619 22.7687 14.2536 22.4403 13.6576 22.0897C12.9664 21.6824 12.341 21.3107 11.7985 20.9848C10.9312 20.4635 10.4811 20.2876 10.0162 20.2876C8.83193 20.2876 7.72554 20.4725 6.72716 20.8372C5.72566 21.2028 4.85867 21.7049 4.15011 22.33C3.47358 22.9273 2.87 23.6524 2.35706 24.4852C1.86263 25.2879 1.46231 26.1252 1.16759 26.9741C0.882924 27.7947 0.64496 28.6922 0.460103 29.642C0.276937 30.5834 0.152573 31.4765 0.0910131 32.2968C0.0297758 33.1223 -0.000577178 33.9495 8.30999e-06 34.7769C8.30999e-06 36.9694 0.755802 38.7442 2.24622 40.0532C3.71822 41.3449 5.66588 42.0002 8.03441 42.0002H29.9656C32.3341 42.0002 34.2811 41.3452 35.7534 40.0532C37.2442 38.7452 38 36.97 38 34.7766C37.9996 33.9304 37.9688 33.0956 37.9079 32.2958Z" fill="#8C0303" stroke="black" stroke-width="3" mask="url(#path-1-inside-1_577_339)"/>
</svg>
