<svg width="15" height="15" viewBox="0 0 15 15" fill="none" xmlns="http://www.w3.org/2000/svg">
<path d="M14.7253 8.2567C15.0916 7.83817 15.0916 7.15848 14.7253 6.73996L10.9751 2.45424C10.6089 2.03571 10.0142 2.03571 9.64793 2.45424C9.2817 2.87277 9.2817 3.55246 9.64793 3.97098L11.7984 6.42857H5.62527C5.10669 6.42857 4.68773 6.90737 4.68773 7.5C4.68773 8.09263 5.10669 8.57143 5.62527 8.57143H11.7984L9.64793 11.029C9.2817 11.4475 9.2817 12.1272 9.64793 12.5458C10.0142 12.9643 10.6089 12.9643 10.9751 12.5458L14.7253 8.26005V8.2567ZM4.68773 2.14286C5.20631 2.14286 5.62527 1.66406 5.62527 1.07143C5.62527 0.478795 5.20631 0 4.68773 0H2.81264C1.25983 0 0 1.43973 0 3.21429V11.7857C0 13.5603 1.25983 15 2.81264 15H4.68773C5.20631 15 5.62527 14.5212 5.62527 13.9286C5.62527 13.3359 5.20631 12.8571 4.68773 12.8571H2.81264C2.29406 12.8571 1.87509 12.3783 1.87509 11.7857V3.21429C1.87509 2.62165 2.29406 2.14286 2.81264 2.14286H4.68773Z" fill="black"/>
</svg>
