<svg width="20" height="17" viewBox="0 0 20 17" fill="none" xmlns="http://www.w3.org/2000/svg">
<path d="M19.8641 8.64776C19.6875 8.40438 15.4204 2.72108 10 2.72108C9.4854 2.72225 8.97203 2.77274 8.46654 2.8719C8.37897 2.88684 8.29518 2.91962 8.22009 2.9683C8.145 3.01699 8.08012 3.0806 8.02926 3.15541C7.9784 3.23022 7.94258 3.31473 7.9239 3.40396C7.90522 3.4932 7.90406 3.58537 7.92049 3.67507C7.93692 3.76477 7.9706 3.8502 8.01956 3.92634C8.06852 4.00248 8.13178 4.06779 8.20562 4.11846C8.27946 4.16913 8.36239 4.20412 8.44956 4.22139C8.53672 4.23866 8.62637 4.23786 8.71323 4.21903C9.1374 4.13582 9.56818 4.09336 10 4.0922C13.967 4.0922 17.4106 7.80109 18.4707 9.06252C17.7879 9.87441 17.0397 10.6255 16.2338 11.3077C16.1658 11.3648 16.1093 11.4351 16.0678 11.5146C16.0262 11.5941 16.0003 11.6813 15.9916 11.7711C15.9828 11.8609 15.9914 11.9516 16.0169 12.038C16.0424 12.1244 16.0842 12.2048 16.1399 12.2746C16.1957 12.3443 16.2643 12.402 16.3418 12.4444C16.4193 12.4868 16.5042 12.5131 16.5916 12.5217C16.679 12.5303 16.7672 12.521 16.8511 12.4945C16.935 12.4679 17.013 12.4246 17.0806 12.3669C18.1051 11.5075 19.0381 10.5389 19.8641 9.47729C19.9523 9.35801 20 9.21233 20 9.06252C20 8.91272 19.9523 8.76704 19.8641 8.64776ZM15.4671 12.5897L12.5335 9.57327L9.50329 6.45739L6.89641 3.77684L3.41613 0.198207C3.35353 0.134737 3.27938 0.0845663 3.19792 0.0505608C3.11646 0.0165552 3.02929 -0.000619533 2.94138 1.70704e-05C2.76383 0.00130275 2.59405 0.0750599 2.46938 0.205063C2.40766 0.269434 2.35887 0.345676 2.3258 0.429436C2.29272 0.513196 2.27602 0.602834 2.27664 0.693232C2.27789 0.875798 2.34962 1.05038 2.47605 1.17856L5.30628 4.08877C3.32157 5.26383 1.56797 6.81005 0.135861 8.64776C0.0477196 8.76704 0 8.91272 0 9.06252C0 9.21233 0.0477196 9.35801 0.135861 9.47729C0.312542 9.72066 4.57956 15.404 10 15.404C11.7273 15.363 13.4138 14.8558 14.8904 13.9334L17.6673 16.7991C17.7292 16.8628 17.8028 16.9133 17.8837 16.9478C17.9646 16.9823 18.0514 17 18.139 17C18.2266 17 18.3133 16.9823 18.3943 16.9478C18.4752 16.9133 18.5488 16.8628 18.6107 16.7991C18.6726 16.7354 18.7218 16.6598 18.7553 16.5766C18.7888 16.4933 18.8061 16.4041 18.8061 16.3141C18.8061 16.224 18.7888 16.1348 18.7553 16.0516C18.7218 15.9683 18.6726 15.8927 18.6107 15.829L15.4671 12.5897ZM8.93991 7.8148L11.2168 10.156C11.0712 10.3267 10.8931 10.465 10.6936 10.5621C10.494 10.6592 10.2771 10.7132 10.0564 10.7206C9.83571 10.7281 9.61588 10.6889 9.41051 10.6055C9.20514 10.5221 9.01862 10.3962 8.86248 10.2356C8.70634 10.0751 8.58391 9.88327 8.50277 9.6721C8.42164 9.46093 8.38352 9.23488 8.39078 9.00795C8.39804 8.78102 8.45052 8.55803 8.54497 8.3528C8.63943 8.14757 8.77385 7.96446 8.93991 7.8148ZM10 14.0328C6.03301 14.0328 2.58939 10.324 1.52931 9.06252C2.86549 7.44901 4.47919 6.10228 6.2897 5.08969L7.99984 6.84473C7.70266 7.11954 7.46302 7.4537 7.29553 7.82685C7.12804 8.19999 7.0362 8.6043 7.02562 9.01512C7.01504 9.42595 7.08594 9.83469 7.23398 10.2164C7.38203 10.5982 7.60413 10.9449 7.88674 11.2355C8.16936 11.5261 8.50657 11.7545 8.87781 11.9067C9.24906 12.0589 9.64656 12.1318 10.0461 12.121C10.4456 12.1101 10.8388 12.0156 11.2017 11.8434C11.5646 11.6712 11.8896 11.4248 12.1568 11.1192L13.9137 12.9257C12.7178 13.6207 11.3734 14.0011 10 14.0328Z" fill="black"/>
</svg>
