<svg width="20" height="17" viewBox="0 0 20 17" fill="none" xmlns="http://www.w3.org/2000/svg">
<path d="M19.7386 8.60757C19.5631 8.3773 15.3263 3 9.93681 3C4.54731 3 0.310567 8.3773 0.135002 8.60757C0.0474181 8.72042 0 8.85826 0 9C0 9.14174 0.0474181 9.27958 0.135002 9.39243C0.310567 9.6227 4.54731 15 9.93681 15C15.3263 15 19.5631 9.6227 19.7386 9.39243C19.8262 9.27958 19.8736 9.14174 19.8736 9C19.8736 8.85826 19.8262 8.72042 19.7386 8.60757ZM9.93681 13.7027C5.99489 13.7027 2.56972 10.1935 1.51964 9C2.56972 7.80324 5.98495 4.2973 9.93681 4.2973C13.8887 4.2973 17.3039 7.80649 18.354 9C17.3039 10.1968 13.8887 13.7027 9.93681 13.7027Z" fill="black"/>
<path d="M9.93551 6.12939C9.35569 6.12939 8.7889 6.29773 8.3068 6.61312C7.8247 6.92851 7.44895 7.37679 7.22706 7.90126C7.00518 8.42573 6.94712 9.00285 7.06024 9.55963C7.17335 10.1164 7.45256 10.6278 7.86255 11.0293C8.27254 11.4307 8.7949 11.704 9.36358 11.8148C9.93225 11.9255 10.5217 11.8687 11.0574 11.6514C11.5931 11.4342 12.0509 11.0663 12.373 10.5943C12.6952 10.1223 12.8671 9.56735 12.8671 8.99967C12.8662 8.23869 12.5571 7.50912 12.0075 6.97103C11.4579 6.43293 10.7127 6.13025 9.93551 6.12939ZM9.93551 10.5726C9.61775 10.5726 9.30714 10.4804 9.04294 10.3075C8.77874 10.1347 8.57282 9.88904 8.45122 9.60162C8.32962 9.31419 8.2978 8.99792 8.35979 8.69279C8.42178 8.38767 8.5748 8.10739 8.79948 7.88741C9.02417 7.66742 9.31043 7.51761 9.62208 7.45692C9.93372 7.39622 10.2568 7.42737 10.5503 7.54643C10.8439 7.66548 11.0948 7.86709 11.2713 8.12577C11.4479 8.38444 11.5421 8.68856 11.5421 8.99967C11.5412 9.41658 11.3717 9.81617 11.0706 10.111C10.7695 10.4058 10.3613 10.5718 9.93551 10.5726Z" fill="black"/>
</svg>
