<svg width="34" height="33" viewBox="0 0 34 33" fill="none" xmlns="http://www.w3.org/2000/svg">
<path d="M0.75 4.12627C0.75 3.32186 1.3094 2.58924 2.15195 2.36322C2.15226 2.36314 2.15257 2.36305 2.15288 2.36297L7.99431 0.816713L7.99462 0.816631C8.9026 0.575869 9.8304 1.00518 10.2183 1.79047L10.2607 1.88923L12.9169 8.07646L12.917 8.07677C13.2321 8.80997 13.0194 9.66151 12.3696 10.1771L9.09593 12.7745L8.62392 13.1489L8.88788 13.6906C11.1767 18.387 15.091 22.1837 19.9202 24.4008L20.4383 24.6386L20.8062 24.203L23.4889 21.0256L23.4915 21.0224C24.0141 20.3964 24.9201 20.17 25.7088 20.4893L25.7091 20.4894L32.0838 23.0674L32.0854 23.0681C32.9769 23.4263 33.4283 24.3544 33.1836 25.2239L33.1835 25.2242L31.5904 30.8937C31.5903 30.894 31.5902 30.8944 31.5901 30.8947C31.3656 31.683 30.619 32.25 29.7487 32.25C13.7135 32.25 0.75 19.6361 0.75 4.12627Z" fill="#8C0303" stroke="black" stroke-width="1.5"/>
</svg>
