<svg width="38" height="36" viewBox="0 0 38 36" fill="none" xmlns="http://www.w3.org/2000/svg">
<path d="M31.9014 5.81791L31.9014 5.8179C24.7682 -0.939902 13.2094 -0.938902 6.07718 5.8179C2.63506 9.07885 0.749142 13.4017 0.749142 17.9947C0.749142 30.8255 15.0717 39.13 27.1491 33.4174L27.379 33.3087L27.6277 33.3622L36.2317 35.2153C36.2317 35.2153 36.2317 35.2153 36.2317 35.2153C36.8824 35.3554 37.3199 34.8076 37.2113 34.355L37.94 34.1801L37.2113 34.355L35.2553 26.2038L35.1893 25.9291L35.3211 25.6791C38.6949 19.2771 37.6215 11.2369 31.9014 5.81791ZM26.9121 23.2246H15.0279C13.791 23.2246 12.7181 22.265 12.7181 20.9969C12.7181 20.6998 12.7767 20.3832 12.9695 20.1086C13.1688 19.8246 13.4442 19.6812 13.6913 19.6091C13.9237 19.5414 14.1659 19.5263 14.364 19.5219C14.4867 19.5192 14.633 19.5206 14.7702 19.522C14.8447 19.5227 14.9166 19.5234 14.9805 19.5234H26.9805C27.0444 19.5234 27.1161 19.5227 27.1905 19.522C27.3271 19.5206 27.4724 19.5192 27.5939 19.5219C27.79 19.5263 28.0313 19.5414 28.263 19.6103C28.511 19.684 28.7838 19.8306 28.9791 20.1163C29.1663 20.3901 29.2218 20.7041 29.2218 20.9969C29.2218 22.265 28.149 23.2246 26.9121 23.2246ZM26.9805 16.25H11.0665C10.8998 16.25 10.7386 16.264 10.5561 16.2799L10.5241 16.2826L10.5166 16.2833C10.3448 16.2982 10.1128 16.3183 9.89766 16.2993C9.67376 16.2796 9.33875 16.2081 9.07718 15.9236C8.81779 15.6415 8.75668 15.2874 8.75668 14.9923C8.75668 13.7243 9.82954 12.7646 11.0665 12.7646H26.9121C28.149 12.7646 29.2218 13.7243 29.2218 14.9923C29.2218 15.2717 29.1717 15.6173 28.9329 15.8999C28.6805 16.1988 28.3463 16.2776 28.1193 16.2989C27.9109 16.3185 27.6859 16.2983 27.5234 16.2837L27.5099 16.2824L27.4871 16.2804C27.3085 16.2643 27.1488 16.25 26.9805 16.25Z" fill="#8C0303" stroke="black" stroke-width="1.5"/>
</svg>
