<svg width="40" height="31" viewBox="0 0 40 31" fill="none" xmlns="http://www.w3.org/2000/svg">
<mask id="path-1-inside-1_577_335" fill="white">
<path d="M17.0679 15.0118C17.8619 15.8256 18.9124 16.2799 20.0048 16.2816C21.0971 16.2833 22.1488 15.8324 22.945 15.021L37.3379 0.35185C36.8231 0.119888 36.2711 0.000325014 35.7136 0H4.28504C3.7567 0.00327349 3.23352 0.113124 2.74219 0.32395L17.0679 15.0118Z"/>
</mask>
<path d="M17.0679 15.0118C17.8619 15.8256 18.9124 16.2799 20.0048 16.2816C21.0971 16.2833 22.1488 15.8324 22.945 15.021L37.3379 0.35185C36.8231 0.119888 36.2711 0.000325014 35.7136 0H4.28504C3.7567 0.00327349 3.23352 0.113124 2.74219 0.32395L17.0679 15.0118Z" fill="#8C0303" stroke="black" stroke-width="3" mask="url(#path-1-inside-1_577_335)"/>
<mask id="path-2-inside-2_577_335" fill="white">
<path d="M24.9014 17.2813C23.5732 18.6313 21.8207 19.3813 20.0007 19.3784C18.1808 19.3755 16.4303 18.62 15.1057 17.2658L0.571429 2.36719C0.201011 3.06129 0.00403874 3.84829 0 4.65034V26.3503C0 27.5836 0.451529 28.7663 1.25526 29.6384C2.05898 30.5104 3.14907 31.0003 4.28571 31.0003H35.7143C36.8509 31.0003 37.941 30.5104 38.7447 29.6384C39.5485 28.7663 40 27.5836 40 26.3503V4.65034C39.9952 3.87656 39.8099 3.11671 39.4614 2.44159L24.9014 17.2813Z"/>
</mask>
<path d="M24.9014 17.2813C23.5732 18.6313 21.8207 19.3813 20.0007 19.3784C18.1808 19.3755 16.4303 18.62 15.1057 17.2658L0.571429 2.36719C0.201011 3.06129 0.00403874 3.84829 0 4.65034V26.3503C0 27.5836 0.451529 28.7663 1.25526 29.6384C2.05898 30.5104 3.14907 31.0003 4.28571 31.0003H35.7143C36.8509 31.0003 37.941 30.5104 38.7447 29.6384C39.5485 28.7663 40 27.5836 40 26.3503V4.65034C39.9952 3.87656 39.8099 3.11671 39.4614 2.44159L24.9014 17.2813Z" fill="#8C0303" stroke="black" stroke-width="3" mask="url(#path-2-inside-2_577_335)"/>
</svg>
